<svg xmlns="http://www.w3.org/2000/svg" viewBox="0 0 64 64" id="hospital"><path fill="#365470" d="M1.18 12.16h61.64v3.4H1.18zM0 56.58h64v3.4H0z"></path><path fill="#e1e2e0" d="M4.18 15.56h55.64v44.42H4.18z"></path><path fill="#59cbef" d="M7.79 18.57h6.03v6.03H7.79zM7.79 29.36h6.03v6.03H7.79zM7.79 40.15h6.03v6.03H7.79zM7.79 50.94h6.03v6.03H7.79zM50.19 18.57h6.03v6.03h-6.03zM50.19 29.36h6.03v6.03h-6.03zM50.19 40.15h6.03v6.03h-6.03zM50.19 50.94h6.03v6.03h-6.03z"></path><path fill="#f9f9f9" d="M17.42 7.42h29.17v52.56H17.42z"></path><path fill="#365470" d="M14.47 4.02h35.07v3.4H14.47z"></path><g fill="#59cbef"><path d="M19.66 21.3h24.67v3.1H19.66zM19.66 27.19h24.67v3.1H19.66zM19.66 33.08h24.67v3.1H19.66zM19.66 38.97h24.67v3.1H19.66z"></path></g><g fill="#da4765"><path d="M30.58 9.78h2.85v9.16h-2.85z"></path><path d="M27.419 15.781v-2.85h9.16v2.85z"></path></g><path fill="#d3d3d3" d="M26.03 44.79h11.94v15.19H26.03z"></path></svg>